<mxfile host="app.diagrams.net" modified="2024-07-10T06:28:39.953Z" agent="Mozilla/5.0 (Windows NT 10.0; Win64; x64) AppleWebKit/537.36 (KHTML, like Gecko) Chrome/126.0.0.0 Safari/537.36" etag="6bIqxm_OmY601mSyb6UA" version="24.6.4" type="device">
  <diagram name="페이지-1" id="w-7bJfR7nvVKTc9TRFa_">
    <mxGraphModel dx="3033" dy="2369" grid="1" gridSize="10" guides="1" tooltips="1" connect="1" arrows="1" fold="1" page="1" pageScale="1" pageWidth="827" pageHeight="1169" math="0" shadow="0">
      <root>
        <mxCell id="0" />
        <mxCell id="1" parent="0" />
        <mxCell id="rBv40_DbePplf0dnozrN-10" value="" style="edgeStyle=orthogonalEdgeStyle;rounded=0;orthogonalLoop=1;jettySize=auto;html=1;" parent="1" source="rBv40_DbePplf0dnozrN-1" target="rBv40_DbePplf0dnozrN-2" edge="1">
          <mxGeometry relative="1" as="geometry" />
        </mxCell>
        <mxCell id="rBv40_DbePplf0dnozrN-1" value="앱 실행" style="strokeWidth=2;html=1;shape=mxgraph.flowchart.terminator;whiteSpace=wrap;" parent="1" vertex="1">
          <mxGeometry x="100" y="-80" width="100" height="60" as="geometry" />
        </mxCell>
        <mxCell id="rBv40_DbePplf0dnozrN-6" value="1. 회원가입" style="edgeStyle=orthogonalEdgeStyle;rounded=0;orthogonalLoop=1;jettySize=auto;html=1;entryX=0.456;entryY=0.964;entryDx=0;entryDy=0;entryPerimeter=0;" parent="1" source="rBv40_DbePplf0dnozrN-2" target="WP8uK_1YEPMtT4Iq28Pu-5" edge="1">
          <mxGeometry x="0.2241" relative="1" as="geometry">
            <mxPoint x="-60" y="273" as="targetPoint" />
            <mxPoint as="offset" />
          </mxGeometry>
        </mxCell>
        <mxCell id="rBv40_DbePplf0dnozrN-12" value="2. 로그인" style="edgeStyle=orthogonalEdgeStyle;rounded=0;orthogonalLoop=1;jettySize=auto;html=1;exitX=0.5;exitY=1;exitDx=0;exitDy=0;exitPerimeter=0;" parent="1" source="rBv40_DbePplf0dnozrN-2" target="rBv40_DbePplf0dnozrN-11" edge="1">
          <mxGeometry relative="1" as="geometry">
            <mxPoint x="150" y="330" as="sourcePoint" />
          </mxGeometry>
        </mxCell>
        <mxCell id="rBv40_DbePplf0dnozrN-14" value="3. ID 찾기" style="edgeStyle=orthogonalEdgeStyle;rounded=0;orthogonalLoop=1;jettySize=auto;html=1;" parent="1" source="rBv40_DbePplf0dnozrN-2" target="rBv40_DbePplf0dnozrN-13" edge="1">
          <mxGeometry relative="1" as="geometry" />
        </mxCell>
        <mxCell id="rBv40_DbePplf0dnozrN-16" value="4. 비밀번호 찾기" style="edgeStyle=orthogonalEdgeStyle;rounded=0;orthogonalLoop=1;jettySize=auto;html=1;" parent="1" source="rBv40_DbePplf0dnozrN-2" target="rBv40_DbePplf0dnozrN-15" edge="1">
          <mxGeometry relative="1" as="geometry" />
        </mxCell>
        <mxCell id="T2ILWvzKDo8-VVFkXjJo-5" style="edgeStyle=orthogonalEdgeStyle;rounded=0;orthogonalLoop=1;jettySize=auto;html=1;" edge="1" parent="1" source="rBv40_DbePplf0dnozrN-2" target="T2ILWvzKDo8-VVFkXjJo-4">
          <mxGeometry relative="1" as="geometry" />
        </mxCell>
        <mxCell id="T2ILWvzKDo8-VVFkXjJo-6" value="5.프로그램 종료" style="edgeLabel;html=1;align=center;verticalAlign=middle;resizable=0;points=[];" vertex="1" connectable="0" parent="T2ILWvzKDo8-VVFkXjJo-5">
          <mxGeometry x="0.4" relative="1" as="geometry">
            <mxPoint y="15" as="offset" />
          </mxGeometry>
        </mxCell>
        <mxCell id="rBv40_DbePplf0dnozrN-2" value="&lt;div&gt;1 : 회원가입&lt;/div&gt;&lt;div&gt;2 : 로그인&lt;/div&gt;&lt;div&gt;3 : ID찾기&lt;/div&gt;&lt;div&gt;4 : 비밀번호찾기&lt;/div&gt;&lt;div&gt;5 : 프로그램 종료&lt;/div&gt;" style="strokeWidth=2;html=1;shape=mxgraph.flowchart.decision;whiteSpace=wrap;rounded=1;size=26;arcSize=11;verticalAlign=middle;align=center;" parent="1" vertex="1">
          <mxGeometry x="60" y="135" width="180" height="160" as="geometry" />
        </mxCell>
        <mxCell id="rBv40_DbePplf0dnozrN-9" value="" style="edgeStyle=orthogonalEdgeStyle;rounded=0;orthogonalLoop=1;jettySize=auto;html=1;exitX=1;exitY=0.5;exitDx=0;exitDy=0;entryX=0.5;entryY=0;entryDx=0;entryDy=0;entryPerimeter=0;" parent="1" source="rBv40_DbePplf0dnozrN-29" target="rBv40_DbePplf0dnozrN-2" edge="1">
          <mxGeometry relative="1" as="geometry">
            <mxPoint x="-20" y="107.5" as="sourcePoint" />
          </mxGeometry>
        </mxCell>
        <mxCell id="rBv40_DbePplf0dnozrN-39" style="edgeStyle=orthogonalEdgeStyle;rounded=0;orthogonalLoop=1;jettySize=auto;html=1;exitX=0.5;exitY=1;exitDx=0;exitDy=0;entryX=0.5;entryY=0;entryDx=0;entryDy=0;" parent="1" source="rBv40_DbePplf0dnozrN-11" target="rBv40_DbePplf0dnozrN-35" edge="1">
          <mxGeometry relative="1" as="geometry" />
        </mxCell>
        <mxCell id="rBv40_DbePplf0dnozrN-11" value="ID, 비밀번호&lt;div&gt;입력&lt;/div&gt;" style="shape=parallelogram;perimeter=parallelogramPerimeter;whiteSpace=wrap;html=1;fixedSize=1;strokeWidth=2;" parent="1" vertex="1">
          <mxGeometry x="90" y="360" width="120" height="60" as="geometry" />
        </mxCell>
        <mxCell id="rBv40_DbePplf0dnozrN-18" value="" style="edgeStyle=orthogonalEdgeStyle;rounded=0;orthogonalLoop=1;jettySize=auto;html=1;entryX=0.5;entryY=1;entryDx=0;entryDy=0;" parent="1" source="rBv40_DbePplf0dnozrN-13" target="rBv40_DbePplf0dnozrN-25" edge="1">
          <mxGeometry relative="1" as="geometry" />
        </mxCell>
        <mxCell id="rBv40_DbePplf0dnozrN-13" value="ID 찾기:&lt;div&gt;이름, 연락처&amp;nbsp;&lt;/div&gt;&lt;div&gt;입력&lt;/div&gt;" style="shape=parallelogram;perimeter=parallelogramPerimeter;whiteSpace=wrap;html=1;fixedSize=1;strokeWidth=2;" parent="1" vertex="1">
          <mxGeometry x="360" y="160" width="120" height="60" as="geometry" />
        </mxCell>
        <mxCell id="rBv40_DbePplf0dnozrN-21" value="" style="edgeStyle=orthogonalEdgeStyle;rounded=0;orthogonalLoop=1;jettySize=auto;html=1;" parent="1" source="rBv40_DbePplf0dnozrN-24" target="rBv40_DbePplf0dnozrN-20" edge="1">
          <mxGeometry relative="1" as="geometry" />
        </mxCell>
        <mxCell id="rBv40_DbePplf0dnozrN-15" value="비밀번호 찾기:&lt;br&gt;ID, 이름, 생년월일&lt;div&gt;입력&lt;/div&gt;" style="shape=parallelogram;perimeter=parallelogramPerimeter;whiteSpace=wrap;html=1;fixedSize=1;strokeWidth=2;" parent="1" vertex="1">
          <mxGeometry x="360" y="260" width="120" height="60" as="geometry" />
        </mxCell>
        <mxCell id="rBv40_DbePplf0dnozrN-17" value="ID 출력" style="shape=parallelogram;perimeter=parallelogramPerimeter;whiteSpace=wrap;html=1;fixedSize=1;strokeWidth=2;" parent="1" vertex="1">
          <mxGeometry x="180" y="67.5" width="120" height="55" as="geometry" />
        </mxCell>
        <mxCell id="rBv40_DbePplf0dnozrN-20" value="비밀번호 출력" style="shape=parallelogram;perimeter=parallelogramPerimeter;whiteSpace=wrap;html=1;fixedSize=1;strokeWidth=2;" parent="1" vertex="1">
          <mxGeometry x="510" y="-10" width="120" height="60" as="geometry" />
        </mxCell>
        <mxCell id="rBv40_DbePplf0dnozrN-22" style="edgeStyle=orthogonalEdgeStyle;rounded=0;orthogonalLoop=1;jettySize=auto;html=1;exitX=0;exitY=0.5;exitDx=0;exitDy=0;entryX=0.5;entryY=0;entryDx=0;entryDy=0;entryPerimeter=0;" parent="1" source="rBv40_DbePplf0dnozrN-20" target="rBv40_DbePplf0dnozrN-2" edge="1">
          <mxGeometry relative="1" as="geometry" />
        </mxCell>
        <mxCell id="rBv40_DbePplf0dnozrN-23" value="" style="edgeStyle=orthogonalEdgeStyle;rounded=0;orthogonalLoop=1;jettySize=auto;html=1;" parent="1" source="rBv40_DbePplf0dnozrN-15" target="rBv40_DbePplf0dnozrN-24" edge="1">
          <mxGeometry relative="1" as="geometry">
            <mxPoint x="450" y="330" as="sourcePoint" />
            <mxPoint x="550" y="80" as="targetPoint" />
          </mxGeometry>
        </mxCell>
        <mxCell id="rBv40_DbePplf0dnozrN-24" value="&lt;div&gt;비밀번호 찾기:&lt;/div&gt;DB 조회" style="rounded=1;whiteSpace=wrap;html=1;absoluteArcSize=1;arcSize=14;strokeWidth=2;shape=mxgraph.flowchart.database;verticalAlign=bottom;" parent="1" vertex="1">
          <mxGeometry x="520" y="190" width="100" height="50" as="geometry" />
        </mxCell>
        <mxCell id="rBv40_DbePplf0dnozrN-27" style="edgeStyle=orthogonalEdgeStyle;rounded=0;orthogonalLoop=1;jettySize=auto;html=1;exitX=0;exitY=0.5;exitDx=0;exitDy=0;entryX=1;entryY=0.5;entryDx=0;entryDy=0;" parent="1" source="rBv40_DbePplf0dnozrN-25" target="rBv40_DbePplf0dnozrN-17" edge="1">
          <mxGeometry relative="1" as="geometry" />
        </mxCell>
        <mxCell id="rBv40_DbePplf0dnozrN-25" value="&lt;div&gt;ID 찾기:&lt;/div&gt;DB 조회" style="rounded=1;whiteSpace=wrap;html=1;absoluteArcSize=1;arcSize=14;strokeWidth=2;shape=mxgraph.flowchart.database;verticalAlign=bottom;horizontal=1;" parent="1" vertex="1">
          <mxGeometry x="370" y="65" width="100" height="60" as="geometry" />
        </mxCell>
        <mxCell id="rBv40_DbePplf0dnozrN-29" value="&lt;div&gt;ID&amp;nbsp;&lt;span style=&quot;background-color: initial;&quot;&gt;중복검사&lt;/span&gt;&lt;/div&gt;&lt;div&gt;&lt;span style=&quot;background-color: initial;&quot;&gt;및&amp;nbsp;&lt;/span&gt;&lt;span style=&quot;background-color: initial;&quot;&gt;저장&lt;/span&gt;&lt;/div&gt;" style="rounded=1;whiteSpace=wrap;html=1;absoluteArcSize=1;arcSize=14;strokeWidth=2;shape=mxgraph.flowchart.database;verticalAlign=bottom;" parent="1" vertex="1">
          <mxGeometry x="-150" y="-5" width="120" height="70" as="geometry" />
        </mxCell>
        <mxCell id="rBv40_DbePplf0dnozrN-32" style="edgeStyle=orthogonalEdgeStyle;rounded=0;orthogonalLoop=1;jettySize=auto;html=1;entryX=0.5;entryY=0;entryDx=0;entryDy=0;entryPerimeter=0;exitX=0;exitY=0.5;exitDx=0;exitDy=0;" parent="1" source="rBv40_DbePplf0dnozrN-17" target="rBv40_DbePplf0dnozrN-2" edge="1">
          <mxGeometry relative="1" as="geometry">
            <Array as="points">
              <mxPoint x="150" y="95" />
            </Array>
          </mxGeometry>
        </mxCell>
        <mxCell id="rBv40_DbePplf0dnozrN-41" value="" style="edgeStyle=orthogonalEdgeStyle;rounded=0;orthogonalLoop=1;jettySize=auto;html=1;" parent="1" source="rBv40_DbePplf0dnozrN-35" target="rBv40_DbePplf0dnozrN-40" edge="1">
          <mxGeometry relative="1" as="geometry" />
        </mxCell>
        <mxCell id="rBv40_DbePplf0dnozrN-35" value="로그인 :&lt;div&gt;DB 조회&lt;/div&gt;" style="rounded=1;whiteSpace=wrap;html=1;absoluteArcSize=1;arcSize=14;strokeWidth=2;shape=mxgraph.flowchart.database;verticalAlign=bottom;" parent="1" vertex="1">
          <mxGeometry x="100" y="470" width="100" height="50" as="geometry" />
        </mxCell>
        <mxCell id="WP8uK_1YEPMtT4Iq28Pu-3" style="edgeStyle=orthogonalEdgeStyle;rounded=0;orthogonalLoop=1;jettySize=auto;html=1;exitX=1;exitY=0.5;exitDx=0;exitDy=0;exitPerimeter=0;" parent="1" source="rBv40_DbePplf0dnozrN-40" target="WP8uK_1YEPMtT4Iq28Pu-1" edge="1">
          <mxGeometry relative="1" as="geometry" />
        </mxCell>
        <mxCell id="WP8uK_1YEPMtT4Iq28Pu-4" style="edgeStyle=orthogonalEdgeStyle;rounded=0;orthogonalLoop=1;jettySize=auto;html=1;exitX=0;exitY=0.5;exitDx=0;exitDy=0;exitPerimeter=0;entryX=0;entryY=0.5;entryDx=0;entryDy=0;" parent="1" source="rBv40_DbePplf0dnozrN-40" target="WP8uK_1YEPMtT4Iq28Pu-2" edge="1">
          <mxGeometry relative="1" as="geometry" />
        </mxCell>
        <mxCell id="rBv40_DbePplf0dnozrN-40" value="회원 권한:&lt;div&gt;일반회원&lt;/div&gt;&lt;div&gt;PT강사&lt;/div&gt;" style="strokeWidth=2;html=1;shape=mxgraph.flowchart.decision;whiteSpace=wrap;" parent="1" vertex="1">
          <mxGeometry x="90" y="590" width="120" height="100" as="geometry" />
        </mxCell>
        <mxCell id="WP8uK_1YEPMtT4Iq28Pu-22" style="edgeStyle=orthogonalEdgeStyle;rounded=0;orthogonalLoop=1;jettySize=auto;html=1;entryX=0;entryY=0.5;entryDx=0;entryDy=0;" parent="1" source="WP8uK_1YEPMtT4Iq28Pu-1" target="WP8uK_1YEPMtT4Iq28Pu-21" edge="1">
          <mxGeometry relative="1" as="geometry" />
        </mxCell>
        <mxCell id="WP8uK_1YEPMtT4Iq28Pu-1" value="일반 회원" style="rounded=1;whiteSpace=wrap;html=1;absoluteArcSize=1;arcSize=14;strokeWidth=2;" parent="1" vertex="1">
          <mxGeometry x="260" y="620" width="130" height="60" as="geometry" />
        </mxCell>
        <mxCell id="WP8uK_1YEPMtT4Iq28Pu-24" value="" style="edgeStyle=orthogonalEdgeStyle;rounded=0;orthogonalLoop=1;jettySize=auto;html=1;" parent="1" source="WP8uK_1YEPMtT4Iq28Pu-2" target="WP8uK_1YEPMtT4Iq28Pu-23" edge="1">
          <mxGeometry relative="1" as="geometry" />
        </mxCell>
        <mxCell id="WP8uK_1YEPMtT4Iq28Pu-2" value="PT강사" style="rounded=1;whiteSpace=wrap;html=1;direction=west;absoluteArcSize=1;arcSize=14;strokeWidth=2;" parent="1" vertex="1">
          <mxGeometry x="-150" y="620" width="135" height="60" as="geometry" />
        </mxCell>
        <mxCell id="WP8uK_1YEPMtT4Iq28Pu-5" value="ID, 비밀번호&lt;div&gt;이름,&amp;nbsp;&lt;span style=&quot;background-color: initial;&quot;&gt;키,&amp;nbsp;&lt;/span&gt;&lt;span style=&quot;background-color: initial;&quot;&gt;운동습관(1~3), 성별, 생년월일, 연락처, 회원분류코드&lt;/span&gt;&lt;/div&gt;" style="html=1;strokeWidth=2;shape=manualInput;whiteSpace=wrap;rounded=1;size=26;arcSize=11;verticalAlign=bottom;" parent="1" vertex="1">
          <mxGeometry x="-380" y="32.5" width="132.5" height="92.5" as="geometry" />
        </mxCell>
        <mxCell id="WP8uK_1YEPMtT4Iq28Pu-14" style="edgeStyle=orthogonalEdgeStyle;rounded=0;orthogonalLoop=1;jettySize=auto;html=1;exitX=0.5;exitY=0;exitDx=0;exitDy=0;entryX=0;entryY=0.5;entryDx=0;entryDy=0;entryPerimeter=0;" parent="1" source="WP8uK_1YEPMtT4Iq28Pu-5" target="rBv40_DbePplf0dnozrN-29" edge="1">
          <mxGeometry relative="1" as="geometry" />
        </mxCell>
        <mxCell id="WP8uK_1YEPMtT4Iq28Pu-33" style="edgeStyle=orthogonalEdgeStyle;rounded=0;orthogonalLoop=1;jettySize=auto;html=1;entryX=0;entryY=0.5;entryDx=0;entryDy=0;" parent="1" source="WP8uK_1YEPMtT4Iq28Pu-21" target="WP8uK_1YEPMtT4Iq28Pu-29" edge="1">
          <mxGeometry relative="1" as="geometry" />
        </mxCell>
        <mxCell id="WP8uK_1YEPMtT4Iq28Pu-34" style="edgeStyle=orthogonalEdgeStyle;rounded=0;orthogonalLoop=1;jettySize=auto;html=1;entryX=0;entryY=0.5;entryDx=0;entryDy=0;" parent="1" source="WP8uK_1YEPMtT4Iq28Pu-21" target="WP8uK_1YEPMtT4Iq28Pu-30" edge="1">
          <mxGeometry relative="1" as="geometry" />
        </mxCell>
        <mxCell id="WP8uK_1YEPMtT4Iq28Pu-35" style="edgeStyle=orthogonalEdgeStyle;rounded=0;orthogonalLoop=1;jettySize=auto;html=1;entryX=0;entryY=0.5;entryDx=0;entryDy=0;" parent="1" source="WP8uK_1YEPMtT4Iq28Pu-21" target="WP8uK_1YEPMtT4Iq28Pu-31" edge="1">
          <mxGeometry relative="1" as="geometry" />
        </mxCell>
        <mxCell id="WP8uK_1YEPMtT4Iq28Pu-36" style="edgeStyle=orthogonalEdgeStyle;rounded=0;orthogonalLoop=1;jettySize=auto;html=1;entryX=0;entryY=0.5;entryDx=0;entryDy=0;" parent="1" source="WP8uK_1YEPMtT4Iq28Pu-21" target="WP8uK_1YEPMtT4Iq28Pu-32" edge="1">
          <mxGeometry relative="1" as="geometry" />
        </mxCell>
        <mxCell id="WP8uK_1YEPMtT4Iq28Pu-38" style="edgeStyle=orthogonalEdgeStyle;rounded=0;orthogonalLoop=1;jettySize=auto;html=1;entryX=0;entryY=0.5;entryDx=0;entryDy=0;" parent="1" source="WP8uK_1YEPMtT4Iq28Pu-21" target="WP8uK_1YEPMtT4Iq28Pu-37" edge="1">
          <mxGeometry relative="1" as="geometry" />
        </mxCell>
        <mxCell id="T2ILWvzKDo8-VVFkXjJo-25" style="edgeStyle=orthogonalEdgeStyle;rounded=0;orthogonalLoop=1;jettySize=auto;html=1;exitX=1;exitY=0.5;exitDx=0;exitDy=0;exitPerimeter=0;entryX=0;entryY=0.75;entryDx=0;entryDy=0;" edge="1" parent="1" source="WP8uK_1YEPMtT4Iq28Pu-21" target="T2ILWvzKDo8-VVFkXjJo-24">
          <mxGeometry relative="1" as="geometry" />
        </mxCell>
        <mxCell id="WP8uK_1YEPMtT4Iq28Pu-21" value="&lt;div&gt;메뉴 표시:&lt;/div&gt;&lt;div&gt;현재 남은 칼로리&lt;/div&gt;메뉴 입력&lt;div&gt;1. 몸무게 기록&lt;/div&gt;&lt;div&gt;2. 음식 기록&lt;/div&gt;&lt;div&gt;3. 운동 기록&lt;/div&gt;&lt;div&gt;4. 쪽지 메뉴&lt;/div&gt;&lt;div&gt;5. 회원 정보 수정&lt;/div&gt;&lt;div&gt;6.로그아웃&lt;/div&gt;" style="whiteSpace=wrap;html=1;strokeWidth=2;shape=mxgraph.flowchart.decision;" parent="1" vertex="1">
          <mxGeometry x="470" y="460" width="240" height="200" as="geometry" />
        </mxCell>
        <mxCell id="WP8uK_1YEPMtT4Iq28Pu-42" value="메뉴 1" style="edgeStyle=orthogonalEdgeStyle;rounded=0;orthogonalLoop=1;jettySize=auto;html=1;entryX=0;entryY=0.5;entryDx=0;entryDy=0;" parent="1" source="WP8uK_1YEPMtT4Iq28Pu-23" target="WP8uK_1YEPMtT4Iq28Pu-39" edge="1">
          <mxGeometry x="0.4322" relative="1" as="geometry">
            <mxPoint as="offset" />
          </mxGeometry>
        </mxCell>
        <mxCell id="WP8uK_1YEPMtT4Iq28Pu-43" value="메뉴 3" style="edgeStyle=orthogonalEdgeStyle;rounded=0;orthogonalLoop=1;jettySize=auto;html=1;entryX=0;entryY=0.5;entryDx=0;entryDy=0;" parent="1" source="WP8uK_1YEPMtT4Iq28Pu-23" target="WP8uK_1YEPMtT4Iq28Pu-40" edge="1">
          <mxGeometry x="0.6976" relative="1" as="geometry">
            <mxPoint as="offset" />
          </mxGeometry>
        </mxCell>
        <mxCell id="WP8uK_1YEPMtT4Iq28Pu-44" value="메뉴 2" style="edgeStyle=orthogonalEdgeStyle;rounded=0;orthogonalLoop=1;jettySize=auto;html=1;entryX=0;entryY=0.5;entryDx=0;entryDy=0;" parent="1" source="WP8uK_1YEPMtT4Iq28Pu-23" target="WP8uK_1YEPMtT4Iq28Pu-41" edge="1">
          <mxGeometry x="0.6123" relative="1" as="geometry">
            <mxPoint as="offset" />
          </mxGeometry>
        </mxCell>
        <mxCell id="WP8uK_1YEPMtT4Iq28Pu-23" value="메뉴 표시:&lt;div&gt;현재 읽지 않은 쪽지 수&lt;/div&gt;&lt;div&gt;메뉴 입력:&lt;/div&gt;&lt;div&gt;1. 나에게 온 쪽지 관리&lt;/div&gt;&lt;div&gt;2. 쪽지 받은 회원 정보 조회&lt;/div&gt;&lt;div&gt;3. 본인 정보 수정&lt;/div&gt;" style="whiteSpace=wrap;html=1;rounded=0;shape=rhombus;perimeter=rhombusPerimeter;" parent="1" vertex="1">
          <mxGeometry x="-490" y="575" width="232.5" height="150" as="geometry" />
        </mxCell>
        <mxCell id="WP8uK_1YEPMtT4Iq28Pu-29" value="1. 몸무게 기록" style="rounded=1;whiteSpace=wrap;html=1;absoluteArcSize=1;arcSize=14;strokeWidth=2;" parent="1" vertex="1">
          <mxGeometry x="940" y="110" width="120" height="60" as="geometry" />
        </mxCell>
        <mxCell id="WP8uK_1YEPMtT4Iq28Pu-30" value="2. 음식 기록" style="rounded=1;whiteSpace=wrap;html=1;absoluteArcSize=1;arcSize=14;strokeWidth=2;" parent="1" vertex="1">
          <mxGeometry x="940" y="210" width="120" height="60" as="geometry" />
        </mxCell>
        <mxCell id="WP8uK_1YEPMtT4Iq28Pu-31" value="3. 운동 기록" style="rounded=1;whiteSpace=wrap;html=1;absoluteArcSize=1;arcSize=14;strokeWidth=2;" parent="1" vertex="1">
          <mxGeometry x="940" y="300" width="120" height="60" as="geometry" />
        </mxCell>
        <mxCell id="WP8uK_1YEPMtT4Iq28Pu-32" value="4. 쪽지 메뉴" style="rounded=1;whiteSpace=wrap;html=1;absoluteArcSize=1;arcSize=14;strokeWidth=2;" parent="1" vertex="1">
          <mxGeometry x="940" y="400" width="120" height="60" as="geometry" />
        </mxCell>
        <mxCell id="WP8uK_1YEPMtT4Iq28Pu-37" value="5. 회원 정보 수정" style="rounded=1;whiteSpace=wrap;html=1;absoluteArcSize=1;arcSize=14;strokeWidth=2;" parent="1" vertex="1">
          <mxGeometry x="940" y="490" width="120" height="60" as="geometry" />
        </mxCell>
        <mxCell id="xza1wipvMu-xcJCYFXXS-4" value="" style="edgeStyle=orthogonalEdgeStyle;rounded=0;orthogonalLoop=1;jettySize=auto;html=1;" parent="1" source="WP8uK_1YEPMtT4Iq28Pu-39" target="xza1wipvMu-xcJCYFXXS-3" edge="1">
          <mxGeometry relative="1" as="geometry" />
        </mxCell>
        <mxCell id="WP8uK_1YEPMtT4Iq28Pu-39" value="1. 나에게 온 쪽지 관리" style="rounded=1;whiteSpace=wrap;html=1;absoluteArcSize=1;arcSize=14;strokeWidth=2;" parent="1" vertex="1">
          <mxGeometry x="-275" y="790" width="140" height="60" as="geometry" />
        </mxCell>
        <mxCell id="xza1wipvMu-xcJCYFXXS-8" value="" style="edgeStyle=orthogonalEdgeStyle;rounded=0;orthogonalLoop=1;jettySize=auto;html=1;" parent="1" source="WP8uK_1YEPMtT4Iq28Pu-40" target="xza1wipvMu-xcJCYFXXS-7" edge="1">
          <mxGeometry relative="1" as="geometry" />
        </mxCell>
        <mxCell id="WP8uK_1YEPMtT4Iq28Pu-40" value="3. 본인 정보 수정" style="rounded=1;whiteSpace=wrap;html=1;absoluteArcSize=1;arcSize=14;strokeWidth=2;" parent="1" vertex="1">
          <mxGeometry x="-275" y="960" width="125" height="60" as="geometry" />
        </mxCell>
        <mxCell id="xza1wipvMu-xcJCYFXXS-6" value="" style="edgeStyle=orthogonalEdgeStyle;rounded=0;orthogonalLoop=1;jettySize=auto;html=1;" parent="1" source="WP8uK_1YEPMtT4Iq28Pu-41" target="xza1wipvMu-xcJCYFXXS-5" edge="1">
          <mxGeometry relative="1" as="geometry" />
        </mxCell>
        <mxCell id="WP8uK_1YEPMtT4Iq28Pu-41" value="2. 쪽지 받은 회원 정보 조회" style="rounded=1;whiteSpace=wrap;html=1;absoluteArcSize=1;arcSize=14;strokeWidth=2;" parent="1" vertex="1">
          <mxGeometry x="-275" y="880" width="165" height="60" as="geometry" />
        </mxCell>
        <mxCell id="xza1wipvMu-xcJCYFXXS-3" value="DB 테이블 조회" style="strokeWidth=2;html=1;shape=mxgraph.flowchart.database;whiteSpace=wrap;" parent="1" vertex="1">
          <mxGeometry x="-45" y="787.5" width="115" height="65" as="geometry" />
        </mxCell>
        <mxCell id="xza1wipvMu-xcJCYFXXS-5" value="DB 테이블 조회" style="strokeWidth=2;html=1;shape=mxgraph.flowchart.database;whiteSpace=wrap;" parent="1" vertex="1">
          <mxGeometry x="-45" y="877.5" width="115" height="65" as="geometry" />
        </mxCell>
        <mxCell id="xza1wipvMu-xcJCYFXXS-10" value="" style="edgeStyle=orthogonalEdgeStyle;rounded=0;orthogonalLoop=1;jettySize=auto;html=1;" parent="1" source="xza1wipvMu-xcJCYFXXS-7" target="xza1wipvMu-xcJCYFXXS-9" edge="1">
          <mxGeometry relative="1" as="geometry" />
        </mxCell>
        <mxCell id="xza1wipvMu-xcJCYFXXS-7" value="본인확인용&lt;div&gt;비밀번호 재입력&lt;/div&gt;" style="html=1;strokeWidth=2;shape=manualInput;whiteSpace=wrap;rounded=1;size=26;arcSize=11;verticalAlign=bottom;" parent="1" vertex="1">
          <mxGeometry x="-80" y="960" width="110" height="60" as="geometry" />
        </mxCell>
        <mxCell id="xza1wipvMu-xcJCYFXXS-9" value="&lt;div&gt;변경할 정보 메뉴&lt;/div&gt;1. 비밀번호&lt;div&gt;2. 연락처&lt;/div&gt;" style="strokeWidth=2;html=1;shape=mxgraph.flowchart.decision;whiteSpace=wrap;" parent="1" vertex="1">
          <mxGeometry x="100" y="940" width="140" height="100" as="geometry" />
        </mxCell>
        <mxCell id="T2ILWvzKDo8-VVFkXjJo-10" style="edgeStyle=orthogonalEdgeStyle;rounded=0;orthogonalLoop=1;jettySize=auto;html=1;exitX=1;exitY=0.5;exitDx=0;exitDy=0;" edge="1" parent="1" source="xza1wipvMu-xcJCYFXXS-11" target="T2ILWvzKDo8-VVFkXjJo-9">
          <mxGeometry relative="1" as="geometry" />
        </mxCell>
        <mxCell id="xza1wipvMu-xcJCYFXXS-11" value="관리자" style="rounded=1;whiteSpace=wrap;html=1;absoluteArcSize=1;arcSize=14;strokeWidth=2;" parent="1" vertex="1">
          <mxGeometry x="260" y="725" width="130" height="60" as="geometry" />
        </mxCell>
        <mxCell id="xza1wipvMu-xcJCYFXXS-12" style="edgeStyle=orthogonalEdgeStyle;rounded=0;orthogonalLoop=1;jettySize=auto;html=1;entryX=-0.002;entryY=0.611;entryDx=0;entryDy=0;entryPerimeter=0;" parent="1" source="rBv40_DbePplf0dnozrN-40" target="xza1wipvMu-xcJCYFXXS-11" edge="1">
          <mxGeometry relative="1" as="geometry" />
        </mxCell>
        <mxCell id="T2ILWvzKDo8-VVFkXjJo-4" value="앱 종료" style="rounded=1;whiteSpace=wrap;html=1;arcSize=50;" vertex="1" parent="1">
          <mxGeometry x="-150" y="330" width="100" height="50" as="geometry" />
        </mxCell>
        <mxCell id="T2ILWvzKDo8-VVFkXjJo-17" style="edgeStyle=orthogonalEdgeStyle;rounded=0;orthogonalLoop=1;jettySize=auto;html=1;exitX=1;exitY=0.5;exitDx=0;exitDy=0;exitPerimeter=0;entryX=0;entryY=0.5;entryDx=0;entryDy=0;" edge="1" parent="1" source="T2ILWvzKDo8-VVFkXjJo-9" target="T2ILWvzKDo8-VVFkXjJo-12">
          <mxGeometry relative="1" as="geometry" />
        </mxCell>
        <mxCell id="T2ILWvzKDo8-VVFkXjJo-21" value="메뉴2" style="edgeLabel;html=1;align=center;verticalAlign=middle;resizable=0;points=[];" vertex="1" connectable="0" parent="T2ILWvzKDo8-VVFkXjJo-17">
          <mxGeometry x="0.7238" y="2" relative="1" as="geometry">
            <mxPoint x="23" y="73" as="offset" />
          </mxGeometry>
        </mxCell>
        <mxCell id="T2ILWvzKDo8-VVFkXjJo-18" style="edgeStyle=orthogonalEdgeStyle;rounded=0;orthogonalLoop=1;jettySize=auto;html=1;exitX=1;exitY=0.5;exitDx=0;exitDy=0;exitPerimeter=0;entryX=0;entryY=0.5;entryDx=0;entryDy=0;" edge="1" parent="1" source="T2ILWvzKDo8-VVFkXjJo-9" target="T2ILWvzKDo8-VVFkXjJo-13">
          <mxGeometry relative="1" as="geometry" />
        </mxCell>
        <mxCell id="T2ILWvzKDo8-VVFkXjJo-22" value="메뉴3" style="edgeLabel;html=1;align=center;verticalAlign=middle;resizable=0;points=[];" vertex="1" connectable="0" parent="T2ILWvzKDo8-VVFkXjJo-18">
          <mxGeometry x="0.7629" y="2" relative="1" as="geometry">
            <mxPoint x="23" y="96" as="offset" />
          </mxGeometry>
        </mxCell>
        <mxCell id="T2ILWvzKDo8-VVFkXjJo-19" style="edgeStyle=orthogonalEdgeStyle;rounded=0;orthogonalLoop=1;jettySize=auto;html=1;exitX=1;exitY=0.5;exitDx=0;exitDy=0;exitPerimeter=0;entryX=0;entryY=0.5;entryDx=0;entryDy=0;" edge="1" parent="1" source="T2ILWvzKDo8-VVFkXjJo-9" target="T2ILWvzKDo8-VVFkXjJo-14">
          <mxGeometry relative="1" as="geometry" />
        </mxCell>
        <mxCell id="T2ILWvzKDo8-VVFkXjJo-23" value="메뉴4" style="edgeLabel;html=1;align=center;verticalAlign=middle;resizable=0;points=[];" vertex="1" connectable="0" parent="T2ILWvzKDo8-VVFkXjJo-19">
          <mxGeometry x="0.8182" y="1" relative="1" as="geometry">
            <mxPoint x="24" y="78" as="offset" />
          </mxGeometry>
        </mxCell>
        <mxCell id="T2ILWvzKDo8-VVFkXjJo-9" value="&lt;div&gt;메뉴 표시:&lt;br&gt;&lt;/div&gt;메뉴 입력&lt;div&gt;1. 음식 DB 관리&lt;/div&gt;&lt;div&gt;2. 운동 DB 관리&lt;/div&gt;&lt;div&gt;3. 회원 DB 관리&lt;/div&gt;&lt;div&gt;4. 뒤로가기&lt;/div&gt;" style="whiteSpace=wrap;html=1;strokeWidth=2;shape=mxgraph.flowchart.decision;" vertex="1" parent="1">
          <mxGeometry x="480" y="710" width="200" height="170" as="geometry" />
        </mxCell>
        <mxCell id="T2ILWvzKDo8-VVFkXjJo-11" value="1. 음식 DB 관리" style="rounded=1;whiteSpace=wrap;html=1;absoluteArcSize=1;arcSize=14;strokeWidth=2;" vertex="1" parent="1">
          <mxGeometry x="790" y="1054" width="120" height="60" as="geometry" />
        </mxCell>
        <mxCell id="T2ILWvzKDo8-VVFkXjJo-12" value="2. 운동 DB 관리" style="rounded=1;whiteSpace=wrap;html=1;absoluteArcSize=1;arcSize=14;strokeWidth=2;" vertex="1" parent="1">
          <mxGeometry x="790" y="1584" width="120" height="60" as="geometry" />
        </mxCell>
        <mxCell id="T2ILWvzKDo8-VVFkXjJo-13" value="3. 회원 DB 관리" style="rounded=1;whiteSpace=wrap;html=1;absoluteArcSize=1;arcSize=14;strokeWidth=2;" vertex="1" parent="1">
          <mxGeometry x="790" y="1933" width="120" height="60" as="geometry" />
        </mxCell>
        <mxCell id="T2ILWvzKDo8-VVFkXjJo-14" value="4. 뒤로가기" style="rounded=1;whiteSpace=wrap;html=1;absoluteArcSize=1;arcSize=14;strokeWidth=2;" vertex="1" parent="1">
          <mxGeometry x="790" y="2123" width="120" height="60" as="geometry" />
        </mxCell>
        <mxCell id="T2ILWvzKDo8-VVFkXjJo-16" style="edgeStyle=orthogonalEdgeStyle;rounded=0;orthogonalLoop=1;jettySize=auto;html=1;entryX=-0.008;entryY=0.383;entryDx=0;entryDy=0;entryPerimeter=0;" edge="1" parent="1" source="T2ILWvzKDo8-VVFkXjJo-9" target="T2ILWvzKDo8-VVFkXjJo-11">
          <mxGeometry relative="1" as="geometry" />
        </mxCell>
        <mxCell id="T2ILWvzKDo8-VVFkXjJo-43" value="메뉴1" style="edgeLabel;html=1;align=center;verticalAlign=middle;resizable=0;points=[];" vertex="1" connectable="0" parent="T2ILWvzKDo8-VVFkXjJo-16">
          <mxGeometry x="0.7358" y="-1" relative="1" as="geometry">
            <mxPoint x="23" as="offset" />
          </mxGeometry>
        </mxCell>
        <mxCell id="T2ILWvzKDo8-VVFkXjJo-24" value="6. 로그아웃" style="rounded=1;whiteSpace=wrap;html=1;absoluteArcSize=1;arcSize=14;strokeWidth=2;" vertex="1" parent="1">
          <mxGeometry x="940" y="590" width="120" height="60" as="geometry" />
        </mxCell>
        <mxCell id="T2ILWvzKDo8-VVFkXjJo-56" style="edgeStyle=orthogonalEdgeStyle;rounded=0;orthogonalLoop=1;jettySize=auto;html=1;exitX=1;exitY=0.5;exitDx=0;exitDy=0;exitPerimeter=0;entryX=0;entryY=0.5;entryDx=0;entryDy=0;" edge="1" parent="1" source="T2ILWvzKDo8-VVFkXjJo-27" target="T2ILWvzKDo8-VVFkXjJo-33">
          <mxGeometry relative="1" as="geometry" />
        </mxCell>
        <mxCell id="T2ILWvzKDo8-VVFkXjJo-57" style="edgeStyle=orthogonalEdgeStyle;rounded=0;orthogonalLoop=1;jettySize=auto;html=1;exitX=1;exitY=0.5;exitDx=0;exitDy=0;exitPerimeter=0;entryX=0;entryY=0.5;entryDx=0;entryDy=0;" edge="1" parent="1" source="T2ILWvzKDo8-VVFkXjJo-27" target="T2ILWvzKDo8-VVFkXjJo-34">
          <mxGeometry relative="1" as="geometry" />
        </mxCell>
        <mxCell id="T2ILWvzKDo8-VVFkXjJo-58" style="edgeStyle=orthogonalEdgeStyle;rounded=0;orthogonalLoop=1;jettySize=auto;html=1;exitX=1;exitY=0.5;exitDx=0;exitDy=0;exitPerimeter=0;entryX=0;entryY=0.5;entryDx=0;entryDy=0;" edge="1" parent="1" source="T2ILWvzKDo8-VVFkXjJo-27" target="T2ILWvzKDo8-VVFkXjJo-35">
          <mxGeometry relative="1" as="geometry" />
        </mxCell>
        <mxCell id="T2ILWvzKDo8-VVFkXjJo-59" style="edgeStyle=orthogonalEdgeStyle;rounded=0;orthogonalLoop=1;jettySize=auto;html=1;exitX=1;exitY=0.5;exitDx=0;exitDy=0;exitPerimeter=0;entryX=0;entryY=0.5;entryDx=0;entryDy=0;" edge="1" parent="1" source="T2ILWvzKDo8-VVFkXjJo-27" target="T2ILWvzKDo8-VVFkXjJo-36">
          <mxGeometry relative="1" as="geometry" />
        </mxCell>
        <mxCell id="T2ILWvzKDo8-VVFkXjJo-60" style="edgeStyle=orthogonalEdgeStyle;rounded=0;orthogonalLoop=1;jettySize=auto;html=1;exitX=1;exitY=0.5;exitDx=0;exitDy=0;exitPerimeter=0;entryX=0;entryY=0.5;entryDx=0;entryDy=0;" edge="1" parent="1" source="T2ILWvzKDo8-VVFkXjJo-27" target="T2ILWvzKDo8-VVFkXjJo-37">
          <mxGeometry relative="1" as="geometry" />
        </mxCell>
        <mxCell id="T2ILWvzKDo8-VVFkXjJo-27" value="&lt;div&gt;메뉴 표시:&lt;br&gt;&lt;/div&gt;메뉴 입력&lt;div&gt;1. 음식 추가&lt;/div&gt;&lt;div&gt;2. 음식 조회&lt;/div&gt;&lt;div&gt;3. 음식 수정&lt;/div&gt;&lt;div&gt;4. 음식 삭제&lt;/div&gt;&lt;div&gt;5. 뒤로가기&lt;/div&gt;" style="whiteSpace=wrap;html=1;strokeWidth=2;shape=mxgraph.flowchart.decision;" vertex="1" parent="1">
          <mxGeometry x="950" y="999" width="200" height="170" as="geometry" />
        </mxCell>
        <mxCell id="T2ILWvzKDo8-VVFkXjJo-28" style="edgeStyle=orthogonalEdgeStyle;rounded=0;orthogonalLoop=1;jettySize=auto;html=1;exitX=1;exitY=0.5;exitDx=0;exitDy=0;entryX=0;entryY=0.5;entryDx=0;entryDy=0;entryPerimeter=0;" edge="1" parent="1" source="T2ILWvzKDo8-VVFkXjJo-11" target="T2ILWvzKDo8-VVFkXjJo-27">
          <mxGeometry relative="1" as="geometry" />
        </mxCell>
        <mxCell id="T2ILWvzKDo8-VVFkXjJo-50" style="edgeStyle=orthogonalEdgeStyle;rounded=0;orthogonalLoop=1;jettySize=auto;html=1;exitX=1;exitY=0.5;exitDx=0;exitDy=0;exitPerimeter=0;entryX=0;entryY=0.5;entryDx=0;entryDy=0;" edge="1" parent="1" source="T2ILWvzKDo8-VVFkXjJo-29" target="T2ILWvzKDo8-VVFkXjJo-38">
          <mxGeometry relative="1" as="geometry" />
        </mxCell>
        <mxCell id="T2ILWvzKDo8-VVFkXjJo-51" style="edgeStyle=orthogonalEdgeStyle;rounded=0;orthogonalLoop=1;jettySize=auto;html=1;exitX=1;exitY=0.5;exitDx=0;exitDy=0;exitPerimeter=0;entryX=0;entryY=0.5;entryDx=0;entryDy=0;" edge="1" parent="1" source="T2ILWvzKDo8-VVFkXjJo-29" target="T2ILWvzKDo8-VVFkXjJo-39">
          <mxGeometry relative="1" as="geometry" />
        </mxCell>
        <mxCell id="T2ILWvzKDo8-VVFkXjJo-52" style="edgeStyle=orthogonalEdgeStyle;rounded=0;orthogonalLoop=1;jettySize=auto;html=1;exitX=1;exitY=0.5;exitDx=0;exitDy=0;exitPerimeter=0;entryX=0;entryY=0.5;entryDx=0;entryDy=0;" edge="1" parent="1" source="T2ILWvzKDo8-VVFkXjJo-29" target="T2ILWvzKDo8-VVFkXjJo-40">
          <mxGeometry relative="1" as="geometry" />
        </mxCell>
        <mxCell id="T2ILWvzKDo8-VVFkXjJo-54" style="edgeStyle=orthogonalEdgeStyle;rounded=0;orthogonalLoop=1;jettySize=auto;html=1;exitX=1;exitY=0.5;exitDx=0;exitDy=0;exitPerimeter=0;" edge="1" parent="1" source="T2ILWvzKDo8-VVFkXjJo-29" target="T2ILWvzKDo8-VVFkXjJo-41">
          <mxGeometry relative="1" as="geometry" />
        </mxCell>
        <mxCell id="T2ILWvzKDo8-VVFkXjJo-55" style="edgeStyle=orthogonalEdgeStyle;rounded=0;orthogonalLoop=1;jettySize=auto;html=1;exitX=1;exitY=0.5;exitDx=0;exitDy=0;exitPerimeter=0;entryX=0;entryY=0.5;entryDx=0;entryDy=0;" edge="1" parent="1" source="T2ILWvzKDo8-VVFkXjJo-29" target="T2ILWvzKDo8-VVFkXjJo-42">
          <mxGeometry relative="1" as="geometry" />
        </mxCell>
        <mxCell id="T2ILWvzKDo8-VVFkXjJo-29" value="&lt;div&gt;메뉴 표시:&lt;br&gt;&lt;/div&gt;메뉴 입력&lt;div&gt;1. 운동 추가&lt;/div&gt;&lt;div&gt;2. 운동 조회&lt;/div&gt;&lt;div&gt;3. 운동 수정&lt;/div&gt;&lt;div&gt;4. 운동 삭제&lt;/div&gt;&lt;div&gt;5. 뒤로가기&lt;/div&gt;" style="whiteSpace=wrap;html=1;strokeWidth=2;shape=mxgraph.flowchart.decision;" vertex="1" parent="1">
          <mxGeometry x="950" y="1529" width="200" height="170" as="geometry" />
        </mxCell>
        <mxCell id="T2ILWvzKDo8-VVFkXjJo-30" style="edgeStyle=orthogonalEdgeStyle;rounded=0;orthogonalLoop=1;jettySize=auto;html=1;exitX=1;exitY=0.5;exitDx=0;exitDy=0;entryX=0;entryY=0.5;entryDx=0;entryDy=0;entryPerimeter=0;" edge="1" parent="1" source="T2ILWvzKDo8-VVFkXjJo-12" target="T2ILWvzKDo8-VVFkXjJo-29">
          <mxGeometry relative="1" as="geometry" />
        </mxCell>
        <mxCell id="T2ILWvzKDo8-VVFkXjJo-47" style="edgeStyle=orthogonalEdgeStyle;rounded=0;orthogonalLoop=1;jettySize=auto;html=1;exitX=1;exitY=0.5;exitDx=0;exitDy=0;exitPerimeter=0;entryX=0;entryY=0.5;entryDx=0;entryDy=0;" edge="1" parent="1" source="T2ILWvzKDo8-VVFkXjJo-31" target="T2ILWvzKDo8-VVFkXjJo-44">
          <mxGeometry relative="1" as="geometry" />
        </mxCell>
        <mxCell id="T2ILWvzKDo8-VVFkXjJo-48" style="edgeStyle=orthogonalEdgeStyle;rounded=0;orthogonalLoop=1;jettySize=auto;html=1;exitX=1;exitY=0.5;exitDx=0;exitDy=0;exitPerimeter=0;entryX=0;entryY=0.5;entryDx=0;entryDy=0;" edge="1" parent="1" source="T2ILWvzKDo8-VVFkXjJo-31" target="T2ILWvzKDo8-VVFkXjJo-45">
          <mxGeometry relative="1" as="geometry" />
        </mxCell>
        <mxCell id="T2ILWvzKDo8-VVFkXjJo-49" style="edgeStyle=orthogonalEdgeStyle;rounded=0;orthogonalLoop=1;jettySize=auto;html=1;exitX=1;exitY=0.5;exitDx=0;exitDy=0;exitPerimeter=0;entryX=0;entryY=0.5;entryDx=0;entryDy=0;" edge="1" parent="1" source="T2ILWvzKDo8-VVFkXjJo-31" target="T2ILWvzKDo8-VVFkXjJo-46">
          <mxGeometry relative="1" as="geometry" />
        </mxCell>
        <mxCell id="T2ILWvzKDo8-VVFkXjJo-31" value="&lt;div&gt;메뉴 표시:&lt;br&gt;&lt;/div&gt;메뉴 입력&lt;div&gt;1. 회원 조회&lt;/div&gt;&lt;div&gt;2. 회원 탈퇴&lt;/div&gt;&lt;div&gt;3. 뒤로가기&lt;/div&gt;" style="whiteSpace=wrap;html=1;strokeWidth=2;shape=mxgraph.flowchart.decision;" vertex="1" parent="1">
          <mxGeometry x="980" y="1898" width="160" height="130" as="geometry" />
        </mxCell>
        <mxCell id="T2ILWvzKDo8-VVFkXjJo-32" style="edgeStyle=orthogonalEdgeStyle;rounded=0;orthogonalLoop=1;jettySize=auto;html=1;exitX=1;exitY=0.5;exitDx=0;exitDy=0;entryX=0;entryY=0.5;entryDx=0;entryDy=0;entryPerimeter=0;" edge="1" parent="1" source="T2ILWvzKDo8-VVFkXjJo-13" target="T2ILWvzKDo8-VVFkXjJo-31">
          <mxGeometry relative="1" as="geometry" />
        </mxCell>
        <mxCell id="T2ILWvzKDo8-VVFkXjJo-62" style="edgeStyle=orthogonalEdgeStyle;rounded=0;orthogonalLoop=1;jettySize=auto;html=1;exitX=1;exitY=0.5;exitDx=0;exitDy=0;entryX=0;entryY=0.75;entryDx=0;entryDy=0;" edge="1" parent="1" source="T2ILWvzKDo8-VVFkXjJo-33" target="T2ILWvzKDo8-VVFkXjJo-61">
          <mxGeometry relative="1" as="geometry" />
        </mxCell>
        <mxCell id="T2ILWvzKDo8-VVFkXjJo-33" value="1. 음식 추가" style="rounded=1;whiteSpace=wrap;html=1;absoluteArcSize=1;arcSize=14;strokeWidth=2;" vertex="1" parent="1">
          <mxGeometry x="1230" y="780" width="120" height="60" as="geometry" />
        </mxCell>
        <mxCell id="T2ILWvzKDo8-VVFkXjJo-34" value="2. 음식 조회" style="rounded=1;whiteSpace=wrap;html=1;absoluteArcSize=1;arcSize=14;strokeWidth=2;" vertex="1" parent="1">
          <mxGeometry x="1230" y="880" width="120" height="60" as="geometry" />
        </mxCell>
        <mxCell id="T2ILWvzKDo8-VVFkXjJo-86" style="edgeStyle=orthogonalEdgeStyle;rounded=0;orthogonalLoop=1;jettySize=auto;html=1;exitX=1;exitY=0.5;exitDx=0;exitDy=0;entryX=0;entryY=0.5;entryDx=0;entryDy=0;" edge="1" parent="1" source="T2ILWvzKDo8-VVFkXjJo-35" target="T2ILWvzKDo8-VVFkXjJo-85">
          <mxGeometry relative="1" as="geometry" />
        </mxCell>
        <mxCell id="T2ILWvzKDo8-VVFkXjJo-35" value="3. 음식 수정" style="rounded=1;whiteSpace=wrap;html=1;absoluteArcSize=1;arcSize=14;strokeWidth=2;" vertex="1" parent="1">
          <mxGeometry x="1230" y="970" width="120" height="60" as="geometry" />
        </mxCell>
        <mxCell id="T2ILWvzKDo8-VVFkXjJo-96" style="edgeStyle=orthogonalEdgeStyle;rounded=0;orthogonalLoop=1;jettySize=auto;html=1;exitX=1;exitY=0.5;exitDx=0;exitDy=0;entryX=0;entryY=0.75;entryDx=0;entryDy=0;" edge="1" parent="1" source="T2ILWvzKDo8-VVFkXjJo-36" target="T2ILWvzKDo8-VVFkXjJo-94">
          <mxGeometry relative="1" as="geometry">
            <Array as="points">
              <mxPoint x="1380" y="1100" />
              <mxPoint x="1380" y="1101" />
            </Array>
          </mxGeometry>
        </mxCell>
        <mxCell id="T2ILWvzKDo8-VVFkXjJo-36" value="4. 음식 삭제" style="rounded=1;whiteSpace=wrap;html=1;absoluteArcSize=1;arcSize=14;strokeWidth=2;" vertex="1" parent="1">
          <mxGeometry x="1230" y="1070" width="120" height="60" as="geometry" />
        </mxCell>
        <mxCell id="T2ILWvzKDo8-VVFkXjJo-37" value="5. 뒤로가기" style="rounded=1;whiteSpace=wrap;html=1;absoluteArcSize=1;arcSize=14;strokeWidth=2;" vertex="1" parent="1">
          <mxGeometry x="1230" y="1160" width="120" height="60" as="geometry" />
        </mxCell>
        <mxCell id="T2ILWvzKDo8-VVFkXjJo-38" value="1. 운동 추가" style="rounded=1;whiteSpace=wrap;html=1;absoluteArcSize=1;arcSize=14;strokeWidth=2;" vertex="1" parent="1">
          <mxGeometry x="1230" y="1394" width="120" height="60" as="geometry" />
        </mxCell>
        <mxCell id="T2ILWvzKDo8-VVFkXjJo-39" value="2. 운동 조회" style="rounded=1;whiteSpace=wrap;html=1;absoluteArcSize=1;arcSize=14;strokeWidth=2;" vertex="1" parent="1">
          <mxGeometry x="1230" y="1494" width="120" height="60" as="geometry" />
        </mxCell>
        <mxCell id="T2ILWvzKDo8-VVFkXjJo-156" style="edgeStyle=orthogonalEdgeStyle;rounded=0;orthogonalLoop=1;jettySize=auto;html=1;exitX=1;exitY=0.5;exitDx=0;exitDy=0;entryX=0;entryY=0.75;entryDx=0;entryDy=0;" edge="1" parent="1" source="T2ILWvzKDo8-VVFkXjJo-40" target="T2ILWvzKDo8-VVFkXjJo-141">
          <mxGeometry relative="1" as="geometry" />
        </mxCell>
        <mxCell id="T2ILWvzKDo8-VVFkXjJo-40" value="3. 운동 수정" style="rounded=1;whiteSpace=wrap;html=1;absoluteArcSize=1;arcSize=14;strokeWidth=2;" vertex="1" parent="1">
          <mxGeometry x="1230" y="1584" width="120" height="60" as="geometry" />
        </mxCell>
        <mxCell id="T2ILWvzKDo8-VVFkXjJo-157" style="edgeStyle=orthogonalEdgeStyle;rounded=0;orthogonalLoop=1;jettySize=auto;html=1;exitX=1;exitY=0.5;exitDx=0;exitDy=0;entryX=0;entryY=0.75;entryDx=0;entryDy=0;" edge="1" parent="1" source="T2ILWvzKDo8-VVFkXjJo-41" target="T2ILWvzKDo8-VVFkXjJo-143">
          <mxGeometry relative="1" as="geometry" />
        </mxCell>
        <mxCell id="T2ILWvzKDo8-VVFkXjJo-41" value="4. 운동 삭제" style="rounded=1;whiteSpace=wrap;html=1;absoluteArcSize=1;arcSize=14;strokeWidth=2;" vertex="1" parent="1">
          <mxGeometry x="1230" y="1684" width="120" height="60" as="geometry" />
        </mxCell>
        <mxCell id="T2ILWvzKDo8-VVFkXjJo-42" value="5. 뒤로가기" style="rounded=1;whiteSpace=wrap;html=1;absoluteArcSize=1;arcSize=14;strokeWidth=2;" vertex="1" parent="1">
          <mxGeometry x="1230" y="1774" width="120" height="60" as="geometry" />
        </mxCell>
        <mxCell id="T2ILWvzKDo8-VVFkXjJo-44" value="1. 회원 조회" style="rounded=1;whiteSpace=wrap;html=1;absoluteArcSize=1;arcSize=14;strokeWidth=2;" vertex="1" parent="1">
          <mxGeometry x="1220" y="1953" width="120" height="60" as="geometry" />
        </mxCell>
        <mxCell id="T2ILWvzKDo8-VVFkXjJo-45" value="2. 회원 탈퇴" style="rounded=1;whiteSpace=wrap;html=1;absoluteArcSize=1;arcSize=14;strokeWidth=2;" vertex="1" parent="1">
          <mxGeometry x="1220" y="2053" width="120" height="60" as="geometry" />
        </mxCell>
        <mxCell id="T2ILWvzKDo8-VVFkXjJo-46" value="3. 뒤로가기" style="rounded=1;whiteSpace=wrap;html=1;absoluteArcSize=1;arcSize=14;strokeWidth=2;" vertex="1" parent="1">
          <mxGeometry x="1220" y="2143" width="120" height="60" as="geometry" />
        </mxCell>
        <mxCell id="T2ILWvzKDo8-VVFkXjJo-61" value="추가할 음식 이름,&amp;nbsp;&lt;div&gt;추가할 칼로리&lt;/div&gt;" style="html=1;strokeWidth=2;shape=manualInput;whiteSpace=wrap;rounded=1;size=26;arcSize=11;verticalAlign=bottom;" vertex="1" parent="1">
          <mxGeometry x="1410" y="760" width="110" height="67.5" as="geometry" />
        </mxCell>
        <mxCell id="T2ILWvzKDo8-VVFkXjJo-67" style="edgeStyle=orthogonalEdgeStyle;rounded=0;orthogonalLoop=1;jettySize=auto;html=1;exitX=1;exitY=0.5;exitDx=0;exitDy=0;exitPerimeter=0;entryX=0;entryY=0.5;entryDx=0;entryDy=0;" edge="1" parent="1" source="T2ILWvzKDo8-VVFkXjJo-63" target="T2ILWvzKDo8-VVFkXjJo-66">
          <mxGeometry relative="1" as="geometry">
            <Array as="points">
              <mxPoint x="1800" y="955" />
              <mxPoint x="1800" y="800" />
            </Array>
          </mxGeometry>
        </mxCell>
        <mxCell id="T2ILWvzKDo8-VVFkXjJo-84" style="edgeStyle=orthogonalEdgeStyle;rounded=0;orthogonalLoop=1;jettySize=auto;html=1;exitX=1;exitY=0.5;exitDx=0;exitDy=0;exitPerimeter=0;entryX=0;entryY=0.5;entryDx=0;entryDy=0;" edge="1" parent="1" source="T2ILWvzKDo8-VVFkXjJo-63" target="T2ILWvzKDo8-VVFkXjJo-80">
          <mxGeometry relative="1" as="geometry">
            <Array as="points">
              <mxPoint x="1800" y="955" />
              <mxPoint x="1800" y="1052" />
            </Array>
          </mxGeometry>
        </mxCell>
        <mxCell id="T2ILWvzKDo8-VVFkXjJo-111" style="edgeStyle=orthogonalEdgeStyle;rounded=0;orthogonalLoop=1;jettySize=auto;html=1;exitX=1;exitY=0.5;exitDx=0;exitDy=0;exitPerimeter=0;entryX=0;entryY=0.5;entryDx=0;entryDy=0;" edge="1" parent="1" source="T2ILWvzKDo8-VVFkXjJo-63" target="T2ILWvzKDo8-VVFkXjJo-107">
          <mxGeometry relative="1" as="geometry">
            <Array as="points">
              <mxPoint x="1800" y="955" />
              <mxPoint x="1800" y="1221" />
            </Array>
          </mxGeometry>
        </mxCell>
        <mxCell id="T2ILWvzKDo8-VVFkXjJo-115" style="edgeStyle=orthogonalEdgeStyle;rounded=0;orthogonalLoop=1;jettySize=auto;html=1;exitX=1;exitY=0.5;exitDx=0;exitDy=0;exitPerimeter=0;entryX=0;entryY=0.5;entryDx=0;entryDy=0;" edge="1" parent="1" source="T2ILWvzKDo8-VVFkXjJo-63" target="T2ILWvzKDo8-VVFkXjJo-114">
          <mxGeometry relative="1" as="geometry" />
        </mxCell>
        <mxCell id="T2ILWvzKDo8-VVFkXjJo-63" value="DB food 테이블 조회" style="strokeWidth=2;html=1;shape=mxgraph.flowchart.database;whiteSpace=wrap;" vertex="1" parent="1">
          <mxGeometry x="1640" y="920" width="120" height="70" as="geometry" />
        </mxCell>
        <mxCell id="T2ILWvzKDo8-VVFkXjJo-64" style="edgeStyle=orthogonalEdgeStyle;rounded=0;orthogonalLoop=1;jettySize=auto;html=1;exitX=1;exitY=0.5;exitDx=0;exitDy=0;entryX=0;entryY=0.5;entryDx=0;entryDy=0;entryPerimeter=0;" edge="1" parent="1" source="T2ILWvzKDo8-VVFkXjJo-61" target="T2ILWvzKDo8-VVFkXjJo-63">
          <mxGeometry relative="1" as="geometry" />
        </mxCell>
        <mxCell id="T2ILWvzKDo8-VVFkXjJo-72" style="edgeStyle=orthogonalEdgeStyle;rounded=0;orthogonalLoop=1;jettySize=auto;html=1;" edge="1" parent="1" source="T2ILWvzKDo8-VVFkXjJo-65" target="T2ILWvzKDo8-VVFkXjJo-27">
          <mxGeometry relative="1" as="geometry">
            <Array as="points">
              <mxPoint x="2170" y="749" />
              <mxPoint x="2170" y="700" />
              <mxPoint x="1050" y="700" />
            </Array>
          </mxGeometry>
        </mxCell>
        <mxCell id="T2ILWvzKDo8-VVFkXjJo-65" value="음식을 추가하는 데에 성공하였습니다." style="shape=document;whiteSpace=wrap;html=1;boundedLbl=1;" vertex="1" parent="1">
          <mxGeometry x="2000" y="722.5" width="130" height="62.5" as="geometry" />
        </mxCell>
        <mxCell id="T2ILWvzKDo8-VVFkXjJo-70" style="edgeStyle=orthogonalEdgeStyle;rounded=0;orthogonalLoop=1;jettySize=auto;html=1;exitX=1;exitY=0.5;exitDx=0;exitDy=0;entryX=0;entryY=0.5;entryDx=0;entryDy=0;" edge="1" parent="1" source="T2ILWvzKDo8-VVFkXjJo-66" target="T2ILWvzKDo8-VVFkXjJo-69">
          <mxGeometry relative="1" as="geometry" />
        </mxCell>
        <mxCell id="T2ILWvzKDo8-VVFkXjJo-76" value="false" style="edgeLabel;html=1;align=center;verticalAlign=middle;resizable=0;points=[];" vertex="1" connectable="0" parent="T2ILWvzKDo8-VVFkXjJo-70">
          <mxGeometry x="-0.0383" y="-1" relative="1" as="geometry">
            <mxPoint as="offset" />
          </mxGeometry>
        </mxCell>
        <mxCell id="T2ILWvzKDo8-VVFkXjJo-66" value="boolean result" style="rhombus;whiteSpace=wrap;html=1;" vertex="1" parent="1">
          <mxGeometry x="1830" y="760" width="100" height="80" as="geometry" />
        </mxCell>
        <mxCell id="T2ILWvzKDo8-VVFkXjJo-68" style="edgeStyle=orthogonalEdgeStyle;rounded=0;orthogonalLoop=1;jettySize=auto;html=1;exitX=1;exitY=0.5;exitDx=0;exitDy=0;entryX=-0.016;entryY=0.367;entryDx=0;entryDy=0;entryPerimeter=0;" edge="1" parent="1" source="T2ILWvzKDo8-VVFkXjJo-66" target="T2ILWvzKDo8-VVFkXjJo-65">
          <mxGeometry relative="1" as="geometry" />
        </mxCell>
        <mxCell id="T2ILWvzKDo8-VVFkXjJo-75" value="true" style="edgeLabel;html=1;align=center;verticalAlign=middle;resizable=0;points=[];" vertex="1" connectable="0" parent="T2ILWvzKDo8-VVFkXjJo-68">
          <mxGeometry x="0.0708" y="-1" relative="1" as="geometry">
            <mxPoint as="offset" />
          </mxGeometry>
        </mxCell>
        <mxCell id="T2ILWvzKDo8-VVFkXjJo-69" value="음식을 추가하는 데에 실패하였습니다." style="shape=document;whiteSpace=wrap;html=1;boundedLbl=1;" vertex="1" parent="1">
          <mxGeometry x="2000" y="827.5" width="130" height="62.5" as="geometry" />
        </mxCell>
        <mxCell id="T2ILWvzKDo8-VVFkXjJo-73" style="edgeStyle=orthogonalEdgeStyle;rounded=0;orthogonalLoop=1;jettySize=auto;html=1;entryX=0.5;entryY=0;entryDx=0;entryDy=0;entryPerimeter=0;" edge="1" parent="1" source="T2ILWvzKDo8-VVFkXjJo-69" target="T2ILWvzKDo8-VVFkXjJo-27">
          <mxGeometry relative="1" as="geometry">
            <Array as="points">
              <mxPoint x="2170" y="859" />
              <mxPoint x="2170" y="700" />
              <mxPoint x="1050" y="700" />
            </Array>
          </mxGeometry>
        </mxCell>
        <mxCell id="T2ILWvzKDo8-VVFkXjJo-77" value="음식을 수정하는 데에 성공하였습니다." style="shape=document;whiteSpace=wrap;html=1;boundedLbl=1;" vertex="1" parent="1">
          <mxGeometry x="2000" y="971.25" width="130" height="62.5" as="geometry" />
        </mxCell>
        <mxCell id="T2ILWvzKDo8-VVFkXjJo-78" style="edgeStyle=orthogonalEdgeStyle;rounded=0;orthogonalLoop=1;jettySize=auto;html=1;exitX=1;exitY=0.5;exitDx=0;exitDy=0;entryX=0;entryY=0.5;entryDx=0;entryDy=0;" edge="1" parent="1" source="T2ILWvzKDo8-VVFkXjJo-80" target="T2ILWvzKDo8-VVFkXjJo-83">
          <mxGeometry relative="1" as="geometry" />
        </mxCell>
        <mxCell id="T2ILWvzKDo8-VVFkXjJo-79" value="false" style="edgeLabel;html=1;align=center;verticalAlign=middle;resizable=0;points=[];" vertex="1" connectable="0" parent="T2ILWvzKDo8-VVFkXjJo-78">
          <mxGeometry x="-0.0383" y="-1" relative="1" as="geometry">
            <mxPoint as="offset" />
          </mxGeometry>
        </mxCell>
        <mxCell id="T2ILWvzKDo8-VVFkXjJo-80" value="boolean result" style="rhombus;whiteSpace=wrap;html=1;" vertex="1" parent="1">
          <mxGeometry x="1830" y="1012.5" width="100" height="80" as="geometry" />
        </mxCell>
        <mxCell id="T2ILWvzKDo8-VVFkXjJo-81" style="edgeStyle=orthogonalEdgeStyle;rounded=0;orthogonalLoop=1;jettySize=auto;html=1;exitX=1;exitY=0.5;exitDx=0;exitDy=0;entryX=-0.016;entryY=0.367;entryDx=0;entryDy=0;entryPerimeter=0;" edge="1" parent="1" source="T2ILWvzKDo8-VVFkXjJo-80" target="T2ILWvzKDo8-VVFkXjJo-77">
          <mxGeometry relative="1" as="geometry" />
        </mxCell>
        <mxCell id="T2ILWvzKDo8-VVFkXjJo-82" value="true" style="edgeLabel;html=1;align=center;verticalAlign=middle;resizable=0;points=[];" vertex="1" connectable="0" parent="T2ILWvzKDo8-VVFkXjJo-81">
          <mxGeometry x="0.0708" y="-1" relative="1" as="geometry">
            <mxPoint as="offset" />
          </mxGeometry>
        </mxCell>
        <mxCell id="T2ILWvzKDo8-VVFkXjJo-83" value="음식을 수정하는 데에 실패하였습니다." style="shape=document;whiteSpace=wrap;html=1;boundedLbl=1;" vertex="1" parent="1">
          <mxGeometry x="2000" y="1067.5" width="130" height="62.5" as="geometry" />
        </mxCell>
        <mxCell id="T2ILWvzKDo8-VVFkXjJo-85" value="기존 음식 이름,&amp;nbsp;&lt;div&gt;새 음식 이름,&amp;nbsp;&lt;/div&gt;&lt;div&gt;수정할 칼로리값&lt;/div&gt;" style="html=1;strokeWidth=2;shape=manualInput;whiteSpace=wrap;rounded=1;size=26;arcSize=11;verticalAlign=bottom;" vertex="1" parent="1">
          <mxGeometry x="1410" y="966.25" width="110" height="67.5" as="geometry" />
        </mxCell>
        <mxCell id="T2ILWvzKDo8-VVFkXjJo-87" style="edgeStyle=orthogonalEdgeStyle;rounded=0;orthogonalLoop=1;jettySize=auto;html=1;exitX=1;exitY=0.5;exitDx=0;exitDy=0;entryX=0;entryY=0.5;entryDx=0;entryDy=0;entryPerimeter=0;" edge="1" parent="1" source="T2ILWvzKDo8-VVFkXjJo-85" target="T2ILWvzKDo8-VVFkXjJo-63">
          <mxGeometry relative="1" as="geometry" />
        </mxCell>
        <mxCell id="T2ILWvzKDo8-VVFkXjJo-94" value="삭제할 음식 이름" style="html=1;strokeWidth=2;shape=manualInput;whiteSpace=wrap;rounded=1;size=26;arcSize=11;verticalAlign=bottom;" vertex="1" parent="1">
          <mxGeometry x="1410" y="1062.5" width="110" height="51.5" as="geometry" />
        </mxCell>
        <mxCell id="T2ILWvzKDo8-VVFkXjJo-99" style="edgeStyle=orthogonalEdgeStyle;rounded=0;orthogonalLoop=1;jettySize=auto;html=1;exitX=1;exitY=0.5;exitDx=0;exitDy=0;entryX=0;entryY=0.5;entryDx=0;entryDy=0;entryPerimeter=0;" edge="1" parent="1" source="T2ILWvzKDo8-VVFkXjJo-34" target="T2ILWvzKDo8-VVFkXjJo-63">
          <mxGeometry relative="1" as="geometry">
            <Array as="points">
              <mxPoint x="1580" y="910" />
              <mxPoint x="1580" y="955" />
            </Array>
          </mxGeometry>
        </mxCell>
        <mxCell id="T2ILWvzKDo8-VVFkXjJo-100" style="edgeStyle=orthogonalEdgeStyle;rounded=0;orthogonalLoop=1;jettySize=auto;html=1;exitX=1;exitY=0.5;exitDx=0;exitDy=0;entryX=0;entryY=0.5;entryDx=0;entryDy=0;entryPerimeter=0;" edge="1" parent="1" source="T2ILWvzKDo8-VVFkXjJo-94" target="T2ILWvzKDo8-VVFkXjJo-63">
          <mxGeometry relative="1" as="geometry" />
        </mxCell>
        <mxCell id="T2ILWvzKDo8-VVFkXjJo-102" style="edgeStyle=orthogonalEdgeStyle;rounded=0;orthogonalLoop=1;jettySize=auto;html=1;exitX=1;exitY=0.5;exitDx=0;exitDy=0;entryX=0.5;entryY=0;entryDx=0;entryDy=0;entryPerimeter=0;" edge="1" parent="1" source="T2ILWvzKDo8-VVFkXjJo-77" target="T2ILWvzKDo8-VVFkXjJo-27">
          <mxGeometry relative="1" as="geometry">
            <Array as="points">
              <mxPoint x="2170" y="1003" />
              <mxPoint x="2170" y="700" />
              <mxPoint x="1050" y="700" />
            </Array>
          </mxGeometry>
        </mxCell>
        <mxCell id="T2ILWvzKDo8-VVFkXjJo-103" style="edgeStyle=orthogonalEdgeStyle;rounded=0;orthogonalLoop=1;jettySize=auto;html=1;exitX=1;exitY=0.5;exitDx=0;exitDy=0;entryX=0.5;entryY=0;entryDx=0;entryDy=0;entryPerimeter=0;" edge="1" parent="1" source="T2ILWvzKDo8-VVFkXjJo-83" target="T2ILWvzKDo8-VVFkXjJo-27">
          <mxGeometry relative="1" as="geometry">
            <Array as="points">
              <mxPoint x="2170" y="1099" />
              <mxPoint x="2170" y="700" />
              <mxPoint x="1050" y="700" />
            </Array>
          </mxGeometry>
        </mxCell>
        <mxCell id="T2ILWvzKDo8-VVFkXjJo-104" value="음식을 삭제하는 데에 성공하였습니다." style="shape=document;whiteSpace=wrap;html=1;boundedLbl=1;" vertex="1" parent="1">
          <mxGeometry x="2000" y="1140" width="130" height="62.5" as="geometry" />
        </mxCell>
        <mxCell id="T2ILWvzKDo8-VVFkXjJo-105" style="edgeStyle=orthogonalEdgeStyle;rounded=0;orthogonalLoop=1;jettySize=auto;html=1;exitX=1;exitY=0.5;exitDx=0;exitDy=0;entryX=0;entryY=0.5;entryDx=0;entryDy=0;" edge="1" parent="1" source="T2ILWvzKDo8-VVFkXjJo-107" target="T2ILWvzKDo8-VVFkXjJo-110">
          <mxGeometry relative="1" as="geometry" />
        </mxCell>
        <mxCell id="T2ILWvzKDo8-VVFkXjJo-106" value="false" style="edgeLabel;html=1;align=center;verticalAlign=middle;resizable=0;points=[];" vertex="1" connectable="0" parent="T2ILWvzKDo8-VVFkXjJo-105">
          <mxGeometry x="-0.0383" y="-1" relative="1" as="geometry">
            <mxPoint as="offset" />
          </mxGeometry>
        </mxCell>
        <mxCell id="T2ILWvzKDo8-VVFkXjJo-107" value="boolean result" style="rhombus;whiteSpace=wrap;html=1;" vertex="1" parent="1">
          <mxGeometry x="1830" y="1181.25" width="100" height="80" as="geometry" />
        </mxCell>
        <mxCell id="T2ILWvzKDo8-VVFkXjJo-108" style="edgeStyle=orthogonalEdgeStyle;rounded=0;orthogonalLoop=1;jettySize=auto;html=1;exitX=1;exitY=0.5;exitDx=0;exitDy=0;entryX=-0.016;entryY=0.367;entryDx=0;entryDy=0;entryPerimeter=0;" edge="1" parent="1" source="T2ILWvzKDo8-VVFkXjJo-107" target="T2ILWvzKDo8-VVFkXjJo-104">
          <mxGeometry relative="1" as="geometry" />
        </mxCell>
        <mxCell id="T2ILWvzKDo8-VVFkXjJo-109" value="true" style="edgeLabel;html=1;align=center;verticalAlign=middle;resizable=0;points=[];" vertex="1" connectable="0" parent="T2ILWvzKDo8-VVFkXjJo-108">
          <mxGeometry x="0.0708" y="-1" relative="1" as="geometry">
            <mxPoint as="offset" />
          </mxGeometry>
        </mxCell>
        <mxCell id="T2ILWvzKDo8-VVFkXjJo-110" value="음식을 삭제하는 데에 실패하였습니다." style="shape=document;whiteSpace=wrap;html=1;boundedLbl=1;" vertex="1" parent="1">
          <mxGeometry x="2000" y="1236.25" width="130" height="62.5" as="geometry" />
        </mxCell>
        <mxCell id="T2ILWvzKDo8-VVFkXjJo-112" style="edgeStyle=orthogonalEdgeStyle;rounded=0;orthogonalLoop=1;jettySize=auto;html=1;exitX=1;exitY=0.5;exitDx=0;exitDy=0;entryX=0.5;entryY=0;entryDx=0;entryDy=0;entryPerimeter=0;" edge="1" parent="1" source="T2ILWvzKDo8-VVFkXjJo-104" target="T2ILWvzKDo8-VVFkXjJo-27">
          <mxGeometry relative="1" as="geometry">
            <Array as="points">
              <mxPoint x="2170" y="1171" />
              <mxPoint x="2170" y="700" />
              <mxPoint x="1050" y="700" />
            </Array>
          </mxGeometry>
        </mxCell>
        <mxCell id="T2ILWvzKDo8-VVFkXjJo-113" style="edgeStyle=orthogonalEdgeStyle;rounded=0;orthogonalLoop=1;jettySize=auto;html=1;exitX=1;exitY=0.5;exitDx=0;exitDy=0;entryX=0.5;entryY=0;entryDx=0;entryDy=0;entryPerimeter=0;" edge="1" parent="1" source="T2ILWvzKDo8-VVFkXjJo-110" target="T2ILWvzKDo8-VVFkXjJo-27">
          <mxGeometry relative="1" as="geometry">
            <Array as="points">
              <mxPoint x="2170" y="1267" />
              <mxPoint x="2170" y="700" />
              <mxPoint x="1050" y="700" />
            </Array>
          </mxGeometry>
        </mxCell>
        <mxCell id="T2ILWvzKDo8-VVFkXjJo-114" value="음식 목록" style="shape=document;whiteSpace=wrap;html=1;boundedLbl=1;" vertex="1" parent="1">
          <mxGeometry x="2000" y="897.5" width="130" height="62.5" as="geometry" />
        </mxCell>
        <mxCell id="T2ILWvzKDo8-VVFkXjJo-116" style="edgeStyle=orthogonalEdgeStyle;rounded=0;orthogonalLoop=1;jettySize=auto;html=1;exitX=1;exitY=0.5;exitDx=0;exitDy=0;entryX=0.5;entryY=0;entryDx=0;entryDy=0;entryPerimeter=0;" edge="1" parent="1" source="T2ILWvzKDo8-VVFkXjJo-114" target="T2ILWvzKDo8-VVFkXjJo-27">
          <mxGeometry relative="1" as="geometry">
            <Array as="points">
              <mxPoint x="2170" y="929" />
              <mxPoint x="2170" y="700" />
              <mxPoint x="1050" y="700" />
            </Array>
          </mxGeometry>
        </mxCell>
        <mxCell id="T2ILWvzKDo8-VVFkXjJo-120" value="추가할 운동 이름,&amp;nbsp;&lt;div&gt;추가할 칼로리,&lt;br&gt;추가할 운동 강도&lt;/div&gt;" style="html=1;strokeWidth=2;shape=manualInput;whiteSpace=wrap;rounded=1;size=26;arcSize=11;verticalAlign=bottom;" vertex="1" parent="1">
          <mxGeometry x="1410" y="1373" width="110" height="78" as="geometry" />
        </mxCell>
        <mxCell id="T2ILWvzKDo8-VVFkXjJo-121" style="edgeStyle=orthogonalEdgeStyle;rounded=0;orthogonalLoop=1;jettySize=auto;html=1;exitX=1;exitY=0.5;exitDx=0;exitDy=0;exitPerimeter=0;entryX=0;entryY=0.5;entryDx=0;entryDy=0;" edge="1" parent="1" source="T2ILWvzKDo8-VVFkXjJo-125" target="T2ILWvzKDo8-VVFkXjJo-130">
          <mxGeometry relative="1" as="geometry">
            <Array as="points">
              <mxPoint x="1800" y="1574.5" />
              <mxPoint x="1800" y="1419.5" />
            </Array>
          </mxGeometry>
        </mxCell>
        <mxCell id="T2ILWvzKDo8-VVFkXjJo-122" style="edgeStyle=orthogonalEdgeStyle;rounded=0;orthogonalLoop=1;jettySize=auto;html=1;exitX=1;exitY=0.5;exitDx=0;exitDy=0;exitPerimeter=0;entryX=0;entryY=0.5;entryDx=0;entryDy=0;" edge="1" parent="1" source="T2ILWvzKDo8-VVFkXjJo-125" target="T2ILWvzKDo8-VVFkXjJo-137">
          <mxGeometry relative="1" as="geometry">
            <Array as="points">
              <mxPoint x="1800" y="1574.5" />
              <mxPoint x="1800" y="1671.5" />
            </Array>
          </mxGeometry>
        </mxCell>
        <mxCell id="T2ILWvzKDo8-VVFkXjJo-123" style="edgeStyle=orthogonalEdgeStyle;rounded=0;orthogonalLoop=1;jettySize=auto;html=1;exitX=1;exitY=0.5;exitDx=0;exitDy=0;exitPerimeter=0;entryX=0;entryY=0.5;entryDx=0;entryDy=0;" edge="1" parent="1" source="T2ILWvzKDo8-VVFkXjJo-125" target="T2ILWvzKDo8-VVFkXjJo-149">
          <mxGeometry relative="1" as="geometry">
            <Array as="points">
              <mxPoint x="1800" y="1574.5" />
              <mxPoint x="1800" y="1840.5" />
            </Array>
          </mxGeometry>
        </mxCell>
        <mxCell id="T2ILWvzKDo8-VVFkXjJo-124" style="edgeStyle=orthogonalEdgeStyle;rounded=0;orthogonalLoop=1;jettySize=auto;html=1;exitX=1;exitY=0.5;exitDx=0;exitDy=0;exitPerimeter=0;entryX=0;entryY=0.5;entryDx=0;entryDy=0;" edge="1" parent="1" source="T2ILWvzKDo8-VVFkXjJo-125" target="T2ILWvzKDo8-VVFkXjJo-153">
          <mxGeometry relative="1" as="geometry" />
        </mxCell>
        <mxCell id="T2ILWvzKDo8-VVFkXjJo-125" value="DB food 테이블 조회" style="strokeWidth=2;html=1;shape=mxgraph.flowchart.database;whiteSpace=wrap;" vertex="1" parent="1">
          <mxGeometry x="1640" y="1539.5" width="120" height="70" as="geometry" />
        </mxCell>
        <mxCell id="T2ILWvzKDo8-VVFkXjJo-126" style="edgeStyle=orthogonalEdgeStyle;rounded=0;orthogonalLoop=1;jettySize=auto;html=1;exitX=1;exitY=0.5;exitDx=0;exitDy=0;entryX=0;entryY=0.5;entryDx=0;entryDy=0;entryPerimeter=0;" edge="1" parent="1" source="T2ILWvzKDo8-VVFkXjJo-120" target="T2ILWvzKDo8-VVFkXjJo-125">
          <mxGeometry relative="1" as="geometry" />
        </mxCell>
        <mxCell id="T2ILWvzKDo8-VVFkXjJo-127" value="운동을 추가하는 데에 성공하였습니다." style="shape=document;whiteSpace=wrap;html=1;boundedLbl=1;" vertex="1" parent="1">
          <mxGeometry x="2000" y="1342" width="130" height="62.5" as="geometry" />
        </mxCell>
        <mxCell id="T2ILWvzKDo8-VVFkXjJo-128" style="edgeStyle=orthogonalEdgeStyle;rounded=0;orthogonalLoop=1;jettySize=auto;html=1;exitX=1;exitY=0.5;exitDx=0;exitDy=0;entryX=0;entryY=0.5;entryDx=0;entryDy=0;" edge="1" parent="1" source="T2ILWvzKDo8-VVFkXjJo-130" target="T2ILWvzKDo8-VVFkXjJo-133">
          <mxGeometry relative="1" as="geometry" />
        </mxCell>
        <mxCell id="T2ILWvzKDo8-VVFkXjJo-129" value="false" style="edgeLabel;html=1;align=center;verticalAlign=middle;resizable=0;points=[];" vertex="1" connectable="0" parent="T2ILWvzKDo8-VVFkXjJo-128">
          <mxGeometry x="-0.0383" y="-1" relative="1" as="geometry">
            <mxPoint as="offset" />
          </mxGeometry>
        </mxCell>
        <mxCell id="T2ILWvzKDo8-VVFkXjJo-130" value="boolean result" style="rhombus;whiteSpace=wrap;html=1;" vertex="1" parent="1">
          <mxGeometry x="1830" y="1379.5" width="100" height="80" as="geometry" />
        </mxCell>
        <mxCell id="T2ILWvzKDo8-VVFkXjJo-131" style="edgeStyle=orthogonalEdgeStyle;rounded=0;orthogonalLoop=1;jettySize=auto;html=1;exitX=1;exitY=0.5;exitDx=0;exitDy=0;entryX=-0.016;entryY=0.367;entryDx=0;entryDy=0;entryPerimeter=0;" edge="1" parent="1" source="T2ILWvzKDo8-VVFkXjJo-130" target="T2ILWvzKDo8-VVFkXjJo-127">
          <mxGeometry relative="1" as="geometry" />
        </mxCell>
        <mxCell id="T2ILWvzKDo8-VVFkXjJo-132" value="true" style="edgeLabel;html=1;align=center;verticalAlign=middle;resizable=0;points=[];" vertex="1" connectable="0" parent="T2ILWvzKDo8-VVFkXjJo-131">
          <mxGeometry x="0.0708" y="-1" relative="1" as="geometry">
            <mxPoint as="offset" />
          </mxGeometry>
        </mxCell>
        <mxCell id="T2ILWvzKDo8-VVFkXjJo-133" value="운동을 추가하는 데에 실패하였습니다." style="shape=document;whiteSpace=wrap;html=1;boundedLbl=1;" vertex="1" parent="1">
          <mxGeometry x="2000" y="1447" width="130" height="62.5" as="geometry" />
        </mxCell>
        <mxCell id="T2ILWvzKDo8-VVFkXjJo-134" value="운동을 수정하는 데에 성공하였습니다." style="shape=document;whiteSpace=wrap;html=1;boundedLbl=1;" vertex="1" parent="1">
          <mxGeometry x="2000" y="1590.75" width="130" height="62.5" as="geometry" />
        </mxCell>
        <mxCell id="T2ILWvzKDo8-VVFkXjJo-135" style="edgeStyle=orthogonalEdgeStyle;rounded=0;orthogonalLoop=1;jettySize=auto;html=1;exitX=1;exitY=0.5;exitDx=0;exitDy=0;entryX=0;entryY=0.5;entryDx=0;entryDy=0;" edge="1" parent="1" source="T2ILWvzKDo8-VVFkXjJo-137" target="T2ILWvzKDo8-VVFkXjJo-140">
          <mxGeometry relative="1" as="geometry" />
        </mxCell>
        <mxCell id="T2ILWvzKDo8-VVFkXjJo-136" value="false" style="edgeLabel;html=1;align=center;verticalAlign=middle;resizable=0;points=[];" vertex="1" connectable="0" parent="T2ILWvzKDo8-VVFkXjJo-135">
          <mxGeometry x="-0.0383" y="-1" relative="1" as="geometry">
            <mxPoint as="offset" />
          </mxGeometry>
        </mxCell>
        <mxCell id="T2ILWvzKDo8-VVFkXjJo-137" value="boolean result" style="rhombus;whiteSpace=wrap;html=1;" vertex="1" parent="1">
          <mxGeometry x="1830" y="1632" width="100" height="80" as="geometry" />
        </mxCell>
        <mxCell id="T2ILWvzKDo8-VVFkXjJo-138" style="edgeStyle=orthogonalEdgeStyle;rounded=0;orthogonalLoop=1;jettySize=auto;html=1;exitX=1;exitY=0.5;exitDx=0;exitDy=0;entryX=-0.016;entryY=0.367;entryDx=0;entryDy=0;entryPerimeter=0;" edge="1" parent="1" source="T2ILWvzKDo8-VVFkXjJo-137" target="T2ILWvzKDo8-VVFkXjJo-134">
          <mxGeometry relative="1" as="geometry" />
        </mxCell>
        <mxCell id="T2ILWvzKDo8-VVFkXjJo-139" value="true" style="edgeLabel;html=1;align=center;verticalAlign=middle;resizable=0;points=[];" vertex="1" connectable="0" parent="T2ILWvzKDo8-VVFkXjJo-138">
          <mxGeometry x="0.0708" y="-1" relative="1" as="geometry">
            <mxPoint as="offset" />
          </mxGeometry>
        </mxCell>
        <mxCell id="T2ILWvzKDo8-VVFkXjJo-140" value="운동을 수정하는 데에 실패하였습니다." style="shape=document;whiteSpace=wrap;html=1;boundedLbl=1;" vertex="1" parent="1">
          <mxGeometry x="2000" y="1687" width="130" height="62.5" as="geometry" />
        </mxCell>
        <mxCell id="T2ILWvzKDo8-VVFkXjJo-141" value="기존 운동 이름,&amp;nbsp;&lt;div&gt;새 운동 이름,&amp;nbsp;&lt;/div&gt;&lt;div&gt;수정할 운동강도&lt;/div&gt;" style="html=1;strokeWidth=2;shape=manualInput;whiteSpace=wrap;rounded=1;size=26;arcSize=11;verticalAlign=bottom;" vertex="1" parent="1">
          <mxGeometry x="1410" y="1563.5" width="110" height="67.5" as="geometry" />
        </mxCell>
        <mxCell id="T2ILWvzKDo8-VVFkXjJo-142" style="edgeStyle=orthogonalEdgeStyle;rounded=0;orthogonalLoop=1;jettySize=auto;html=1;exitX=1;exitY=0.5;exitDx=0;exitDy=0;entryX=0;entryY=0.5;entryDx=0;entryDy=0;entryPerimeter=0;" edge="1" parent="1" source="T2ILWvzKDo8-VVFkXjJo-141" target="T2ILWvzKDo8-VVFkXjJo-125">
          <mxGeometry relative="1" as="geometry" />
        </mxCell>
        <mxCell id="T2ILWvzKDo8-VVFkXjJo-143" value="삭제할 운동 이름" style="html=1;strokeWidth=2;shape=manualInput;whiteSpace=wrap;rounded=1;size=26;arcSize=11;verticalAlign=bottom;" vertex="1" parent="1">
          <mxGeometry x="1410" y="1675" width="110" height="51.5" as="geometry" />
        </mxCell>
        <mxCell id="T2ILWvzKDo8-VVFkXjJo-145" style="edgeStyle=orthogonalEdgeStyle;rounded=0;orthogonalLoop=1;jettySize=auto;html=1;exitX=1;exitY=0.5;exitDx=0;exitDy=0;entryX=0;entryY=0.5;entryDx=0;entryDy=0;entryPerimeter=0;" edge="1" parent="1" source="T2ILWvzKDo8-VVFkXjJo-143" target="T2ILWvzKDo8-VVFkXjJo-125">
          <mxGeometry relative="1" as="geometry" />
        </mxCell>
        <mxCell id="T2ILWvzKDo8-VVFkXjJo-146" value="운동을 삭제하는 데에 성공하였습니다." style="shape=document;whiteSpace=wrap;html=1;boundedLbl=1;" vertex="1" parent="1">
          <mxGeometry x="2000" y="1759.5" width="130" height="62.5" as="geometry" />
        </mxCell>
        <mxCell id="T2ILWvzKDo8-VVFkXjJo-147" style="edgeStyle=orthogonalEdgeStyle;rounded=0;orthogonalLoop=1;jettySize=auto;html=1;exitX=1;exitY=0.5;exitDx=0;exitDy=0;entryX=0;entryY=0.5;entryDx=0;entryDy=0;" edge="1" parent="1" source="T2ILWvzKDo8-VVFkXjJo-149" target="T2ILWvzKDo8-VVFkXjJo-152">
          <mxGeometry relative="1" as="geometry" />
        </mxCell>
        <mxCell id="T2ILWvzKDo8-VVFkXjJo-148" value="false" style="edgeLabel;html=1;align=center;verticalAlign=middle;resizable=0;points=[];" vertex="1" connectable="0" parent="T2ILWvzKDo8-VVFkXjJo-147">
          <mxGeometry x="-0.0383" y="-1" relative="1" as="geometry">
            <mxPoint as="offset" />
          </mxGeometry>
        </mxCell>
        <mxCell id="T2ILWvzKDo8-VVFkXjJo-149" value="boolean result" style="rhombus;whiteSpace=wrap;html=1;" vertex="1" parent="1">
          <mxGeometry x="1830" y="1800.75" width="100" height="80" as="geometry" />
        </mxCell>
        <mxCell id="T2ILWvzKDo8-VVFkXjJo-150" style="edgeStyle=orthogonalEdgeStyle;rounded=0;orthogonalLoop=1;jettySize=auto;html=1;exitX=1;exitY=0.5;exitDx=0;exitDy=0;entryX=-0.016;entryY=0.367;entryDx=0;entryDy=0;entryPerimeter=0;" edge="1" parent="1" source="T2ILWvzKDo8-VVFkXjJo-149" target="T2ILWvzKDo8-VVFkXjJo-146">
          <mxGeometry relative="1" as="geometry" />
        </mxCell>
        <mxCell id="T2ILWvzKDo8-VVFkXjJo-151" value="true" style="edgeLabel;html=1;align=center;verticalAlign=middle;resizable=0;points=[];" vertex="1" connectable="0" parent="T2ILWvzKDo8-VVFkXjJo-150">
          <mxGeometry x="0.0708" y="-1" relative="1" as="geometry">
            <mxPoint as="offset" />
          </mxGeometry>
        </mxCell>
        <mxCell id="T2ILWvzKDo8-VVFkXjJo-152" value="운동을 삭제하는 데에 실패하였습니다." style="shape=document;whiteSpace=wrap;html=1;boundedLbl=1;" vertex="1" parent="1">
          <mxGeometry x="2000" y="1855.75" width="130" height="62.5" as="geometry" />
        </mxCell>
        <mxCell id="T2ILWvzKDo8-VVFkXjJo-153" value="운동 목록" style="shape=document;whiteSpace=wrap;html=1;boundedLbl=1;" vertex="1" parent="1">
          <mxGeometry x="2000" y="1517" width="130" height="62.5" as="geometry" />
        </mxCell>
        <mxCell id="T2ILWvzKDo8-VVFkXjJo-154" style="edgeStyle=orthogonalEdgeStyle;rounded=0;orthogonalLoop=1;jettySize=auto;html=1;exitX=1;exitY=0.5;exitDx=0;exitDy=0;entryX=0.007;entryY=0.643;entryDx=0;entryDy=0;entryPerimeter=0;" edge="1" parent="1" source="T2ILWvzKDo8-VVFkXjJo-38" target="T2ILWvzKDo8-VVFkXjJo-120">
          <mxGeometry relative="1" as="geometry" />
        </mxCell>
        <mxCell id="T2ILWvzKDo8-VVFkXjJo-155" style="edgeStyle=orthogonalEdgeStyle;rounded=0;orthogonalLoop=1;jettySize=auto;html=1;exitX=1;exitY=0.5;exitDx=0;exitDy=0;entryX=0;entryY=0.5;entryDx=0;entryDy=0;entryPerimeter=0;" edge="1" parent="1" source="T2ILWvzKDo8-VVFkXjJo-39" target="T2ILWvzKDo8-VVFkXjJo-125">
          <mxGeometry relative="1" as="geometry">
            <Array as="points">
              <mxPoint x="1580" y="1524" />
              <mxPoint x="1580" y="1575" />
            </Array>
          </mxGeometry>
        </mxCell>
        <mxCell id="T2ILWvzKDo8-VVFkXjJo-158" style="edgeStyle=orthogonalEdgeStyle;rounded=0;orthogonalLoop=1;jettySize=auto;html=1;exitX=1;exitY=0.5;exitDx=0;exitDy=0;entryX=0.5;entryY=0;entryDx=0;entryDy=0;entryPerimeter=0;" edge="1" parent="1" source="T2ILWvzKDo8-VVFkXjJo-127" target="T2ILWvzKDo8-VVFkXjJo-29">
          <mxGeometry relative="1" as="geometry">
            <Array as="points">
              <mxPoint x="2160" y="1373" />
              <mxPoint x="2160" y="1320" />
              <mxPoint x="1050" y="1320" />
            </Array>
          </mxGeometry>
        </mxCell>
        <mxCell id="T2ILWvzKDo8-VVFkXjJo-159" style="edgeStyle=orthogonalEdgeStyle;rounded=0;orthogonalLoop=1;jettySize=auto;html=1;exitX=1;exitY=0.5;exitDx=0;exitDy=0;entryX=0.5;entryY=0;entryDx=0;entryDy=0;entryPerimeter=0;" edge="1" parent="1" source="T2ILWvzKDo8-VVFkXjJo-133" target="T2ILWvzKDo8-VVFkXjJo-29">
          <mxGeometry relative="1" as="geometry">
            <Array as="points">
              <mxPoint x="2160" y="1478" />
              <mxPoint x="2160" y="1320" />
              <mxPoint x="1050" y="1320" />
            </Array>
          </mxGeometry>
        </mxCell>
        <mxCell id="T2ILWvzKDo8-VVFkXjJo-160" style="edgeStyle=orthogonalEdgeStyle;rounded=0;orthogonalLoop=1;jettySize=auto;html=1;exitX=1;exitY=0.5;exitDx=0;exitDy=0;entryX=0.5;entryY=0;entryDx=0;entryDy=0;entryPerimeter=0;" edge="1" parent="1" source="T2ILWvzKDo8-VVFkXjJo-153" target="T2ILWvzKDo8-VVFkXjJo-29">
          <mxGeometry relative="1" as="geometry">
            <Array as="points">
              <mxPoint x="2160" y="1548" />
              <mxPoint x="2160" y="1320" />
              <mxPoint x="1050" y="1320" />
            </Array>
          </mxGeometry>
        </mxCell>
        <mxCell id="T2ILWvzKDo8-VVFkXjJo-161" style="edgeStyle=orthogonalEdgeStyle;rounded=0;orthogonalLoop=1;jettySize=auto;html=1;exitX=1;exitY=0.5;exitDx=0;exitDy=0;entryX=0.5;entryY=0;entryDx=0;entryDy=0;entryPerimeter=0;" edge="1" parent="1" source="T2ILWvzKDo8-VVFkXjJo-134" target="T2ILWvzKDo8-VVFkXjJo-29">
          <mxGeometry relative="1" as="geometry">
            <Array as="points">
              <mxPoint x="2160" y="1622" />
              <mxPoint x="2160" y="1320" />
              <mxPoint x="1050" y="1320" />
            </Array>
          </mxGeometry>
        </mxCell>
        <mxCell id="T2ILWvzKDo8-VVFkXjJo-162" style="edgeStyle=orthogonalEdgeStyle;rounded=0;orthogonalLoop=1;jettySize=auto;html=1;exitX=1;exitY=0.5;exitDx=0;exitDy=0;entryX=0.5;entryY=0;entryDx=0;entryDy=0;entryPerimeter=0;" edge="1" parent="1" source="T2ILWvzKDo8-VVFkXjJo-140" target="T2ILWvzKDo8-VVFkXjJo-29">
          <mxGeometry relative="1" as="geometry">
            <Array as="points">
              <mxPoint x="2160" y="1718" />
              <mxPoint x="2160" y="1320" />
              <mxPoint x="1050" y="1320" />
            </Array>
          </mxGeometry>
        </mxCell>
        <mxCell id="T2ILWvzKDo8-VVFkXjJo-163" style="edgeStyle=orthogonalEdgeStyle;rounded=0;orthogonalLoop=1;jettySize=auto;html=1;exitX=1;exitY=0.5;exitDx=0;exitDy=0;entryX=0.5;entryY=0;entryDx=0;entryDy=0;entryPerimeter=0;" edge="1" parent="1" source="T2ILWvzKDo8-VVFkXjJo-146" target="T2ILWvzKDo8-VVFkXjJo-29">
          <mxGeometry relative="1" as="geometry">
            <Array as="points">
              <mxPoint x="2160" y="1791" />
              <mxPoint x="2160" y="1320" />
              <mxPoint x="1050" y="1320" />
            </Array>
          </mxGeometry>
        </mxCell>
        <mxCell id="T2ILWvzKDo8-VVFkXjJo-164" style="edgeStyle=orthogonalEdgeStyle;rounded=0;orthogonalLoop=1;jettySize=auto;html=1;exitX=1;exitY=0.5;exitDx=0;exitDy=0;entryX=0.5;entryY=0;entryDx=0;entryDy=0;entryPerimeter=0;" edge="1" parent="1" source="T2ILWvzKDo8-VVFkXjJo-152" target="T2ILWvzKDo8-VVFkXjJo-29">
          <mxGeometry relative="1" as="geometry">
            <Array as="points">
              <mxPoint x="2160" y="1887" />
              <mxPoint x="2160" y="1320" />
              <mxPoint x="1050" y="1320" />
            </Array>
          </mxGeometry>
        </mxCell>
      </root>
    </mxGraphModel>
  </diagram>
</mxfile>
